<?xml version="1.0" encoding="UTF-8" standalone="no"?>
<!-- Created with Inkscape (http://www.inkscape.org/) -->

<svg
   xmlns:dc="http://purl.org/dc/elements/1.1/"
   xmlns:cc="http://creativecommons.org/ns#"
   xmlns:rdf="http://www.w3.org/1999/02/22-rdf-syntax-ns#"
   xmlns:svg="http://www.w3.org/2000/svg"
   xmlns="http://www.w3.org/2000/svg"
   xmlns:sodipodi="http://sodipodi.sourceforge.net/DTD/sodipodi-0.dtd"
   xmlns:inkscape="http://www.inkscape.org/namespaces/inkscape"
   width="744.09448819"
   height="1052.3622047"
   id="svg2"
   version="1.1"
   inkscape:version="0.48.4 r9939"
   sodipodi:docname="New document 1">
  <defs
     id="defs4" />
  <sodipodi:namedview
     id="base"
     pagecolor="#ffffff"
     bordercolor="#666666"
     borderopacity="1.0"
     inkscape:pageopacity="0.0"
     inkscape:pageshadow="2"
     inkscape:zoom="0.98994949"
     inkscape:cx="388.94389"
     inkscape:cy="694.31393"
     inkscape:document-units="px"
     inkscape:current-layer="g2993"
     showgrid="false"
     inkscape:window-width="1301"
     inkscape:window-height="744"
     inkscape:window-x="65"
     inkscape:window-y="24"
     inkscape:window-maximized="1" />
  <metadata
     id="metadata7">
    <rdf:RDF>
      <cc:Work
         rdf:about="">
        <dc:format>image/svg+xml</dc:format>
        <dc:type
           rdf:resource="http://purl.org/dc/dcmitype/StillImage" />
        <dc:title></dc:title>
      </cc:Work>
    </rdf:RDF>
  </metadata>
  <g
     inkscape:label="Layer 1"
     inkscape:groupmode="layer"
     id="layer1">
    <g
       id="g2993"
       transform="matrix(7.5922013,0,0,7.7385099,-295.55586,-1564.8891)">
      <g
         style="font-size:20px;font-style:normal;font-variant:normal;font-weight:normal;font-stretch:normal;text-align:start;line-height:125%;letter-spacing:0px;word-spacing:0px;writing-mode:lr-tb;text-anchor:start;fill:#000000;fill-opacity:1;stroke:none;font-family:'Mom´sTypewriter';-inkscape-font-specification:'Mom´sTypewriter'"
         id="flowRoot2985"
         transform="translate(22.88483,18.666619)">
        <path
           d="m 50.1975,219.20073 c 0.02666,2e-5 0.09999,0.04 0.22,0.12 0.119994,0.0667 0.193327,0.10002 0.22,0.1 0.199994,-0.0533 0.50666,-0.0733 0.92,-0.06 0.119993,0.12002 0.253326,0.23335 0.4,0.34 0.07999,-0.0666 0.266659,-0.11998 0.56,-0.16 0.173325,0.0267 0.406658,0.14002 0.7,0.34 0.02666,0.0667 0.07999,0.14002 0.16,0.22 0.02666,0.0267 0.04666,0.0334 0.06,0.02 -9e-6,2e-5 -9e-6,-0.0133 0,-0.04 -9e-6,-0.04 0.01999,-0.0533 0.06,-0.04 l 0,0.12 c 0.239991,0.13335 0.473324,0.26002 0.7,0.38 0.27999,0.16002 0.47999,0.32002 0.6,0.48 0.02666,0.0267 0.146656,0.21335 0.36,0.56 -0.04001,0.0134 -0.06001,0.0467 -0.06,0.1 -1.1e-5,0.12001 0.05332,0.29335 0.16,0.52 0.106656,0.21335 0.193322,0.32668 0.26,0.34 0.07999,0.0134 0.219989,0.04 0.42,0.08 0.02665,0.0267 0.06665,0.06 0.12,0.1 l -0.06,0.12 c -0.05335,1e-5 -0.126678,1e-5 -0.22,0 -0.160011,0.04 -0.240011,0.16001 -0.24,0.36 -1.1e-5,0.17335 -1.1e-5,0.34001 0,0.5 -1.1e-5,0.0134 -0.02001,0.06 -0.06,0.14 -0.04001,0.08 -0.05334,0.14668 -0.04,0.2 -1.1e-5,0.0134 0.01999,0.0734 0.06,0.18 0.03999,0.10668 0.05332,0.20001 0.04,0.28 -1.1e-5,0.0134 -0.03334,0.0667 -0.1,0.16 -0.05334,0.0933 -0.07334,0.19334 -0.06,0.3 l 0.12,0.1 c 0.07999,0.24001 0.09332,0.48668 0.04,0.74 -1.1e-5,0.0533 -0.05334,0.15334 -0.16,0.3 -0.09334,0.13334 -0.133344,0.26668 -0.12,0.4 0.01332,0.04 0.05999,0.12001 0.14,0.24 0.09332,0.12001 0.139989,0.20668 0.14,0.26 -1.1e-5,0.0667 -0.03334,0.12668 -0.1,0.18 -1.1e-5,10e-6 -0.09334,10e-6 -0.28,0 -0.01334,0.0533 -0.02001,0.19334 -0.02,0.42 0.01332,0.21334 0.01999,0.32001 0.02,0.32 0.01332,0.04 0.139989,0.13334 0.38,0.28 0.07999,0.08 0.179989,0.15334 0.3,0.22 0.03999,0.0133 0.139988,0.0133 0.3,0 0.159988,-0.0267 0.266655,-0.04 0.32,-0.04 l 0.06,-0.12 c 0.119988,-0.0267 0.226654,-0.04 0.32,-0.04 0.333321,1e-5 0.606654,0.28001 0.82,0.84 0.06665,0.13334 0.139987,0.32001 0.22,0.56 -0.02668,0.0933 -0.04668,0.19334 -0.06,0.3 -0.05335,0.0133 -0.12668,0.0667 -0.22,0.16 -0.05335,0.04 -0.10668,0.10001 -0.16,0.18 -1.3e-5,0.0533 -1.3e-5,0.12667 0,0.22 -0.10668,0.08 -0.240013,0.19334 -0.4,0.34 0.06665,1e-5 0.09999,0.0333 0.1,0.1 -1.3e-5,0.12001 -0.09335,0.31334 -0.28,0.58 -0.413345,-0.0533 -0.753345,-0.0133 -1.02,0.12 -0.06668,0.0667 -0.173345,0.13334 -0.32,0.2 -0.133344,0.0667 -0.393344,0.0933 -0.78,0.08 -0.40001,-0.0133 -0.66001,-0.0467 -0.78,-0.1 -0.09334,-0.13333 -0.206676,-0.28666 -0.34,-0.46 -0.09334,-0.0933 -0.266676,-0.18666 -0.52,-0.28 -0.120009,-0.0533 -0.213342,-0.0733 -0.28,-0.06 -0.360008,0.0533 -0.646674,0.14667 -0.86,0.28 l 0,0.12 c -0.08001,0.0667 -0.173341,0.14 -0.28,0.22 -0.05334,-0.0133 -0.13334,-0.0133 -0.24,0 l -0.06,0.12 c -0.13334,-0.0267 -0.320007,-0.0467 -0.56,-0.06 -0.08001,0.0533 -0.17334,0.10667 -0.28,0.16 -0.160006,-0.0133 -0.393339,-0.0133 -0.7,0 -0.160005,0.08 -0.386672,0.16 -0.68,0.24 -0.06667,0 -0.153338,-0.02 -0.26,-0.06 -0.106671,-0.04 -0.173338,-0.06 -0.2,-0.06 -0.146671,0.0267 -0.353337,0.0467 -0.62,0.06 -0.10667,-0.0533 -0.240003,-0.11333 -0.4,-0.18 -0.173336,0.0267 -0.440003,-0.007 -0.8,-0.1 -0.08,-0.16 -0.193336,-0.33333 -0.34,-0.52 -0.133335,-0.04 -0.320002,-0.11333 -0.56,-0.22 -0.133335,-0.08 -0.326668,-0.38666 -0.58,-0.92 -0.09333,-0.15999 -0.206667,-0.38666 -0.34,-0.68 0.01333,-0.11999 0.01333,-0.29333 0,-0.52 -0.01333,-0.04 -0.06,-0.12666 -0.14,-0.26 -0.06667,-0.13333 -0.09333,-0.25333 -0.08,-0.36 0.05333,-0.11999 0.106666,-0.27332 0.16,-0.46 -0.04,-0.0933 -0.06,-0.26666 -0.06,-0.52 0.02667,-0.0667 0.1,-0.12666 0.22,-0.18 0.133332,-0.0667 0.213332,-0.11999 0.24,-0.16 -10e-7,-0.04 -10e-7,-0.0933 0,-0.16 0.09333,-0.17332 0.206665,-0.39999 0.34,-0.68 -10e-7,-0.08 0.02,-0.19999 0.06,-0.36 0.08,-0.10666 0.366665,-0.27332 0.86,-0.5 l 0,-0.06 c 0.09333,0.0133 0.206664,0.0133 0.34,0 0.02666,-0.0933 0.06666,-0.20666 0.12,-0.34 l 0.1,0 c -0.320002,-0.08 -0.566669,-0.19332 -0.74,-0.34 -0.02667,-0.0933 -0.100002,-0.20665 -0.22,-0.34 -2e-6,1e-5 -0.08667,-0.0333 -0.26,-0.1 -0.06667,-0.0267 -0.106668,-0.11332 -0.12,-0.26 -10e-7,-0.04 -0.0067,-0.0733 -0.02,-0.1 -0.06667,-0.04 -0.140001,-0.11999 -0.22,-0.24 -0.02667,-0.0667 -1e-6,-0.37332 0.08,-0.92 0.09333,-0.55999 0.166665,-0.87332 0.22,-0.94 0.06667,-0.0667 0.153332,-0.16665 0.26,-0.3 -2e-6,-0.04 -2e-6,-0.0933 0,-0.16 0.253331,-0.37332 0.406665,-0.58665 0.46,-0.64 0.05333,-0.0533 0.253331,-0.18665 0.6,-0.4 0.346663,-0.21332 0.546663,-0.32665 0.6,-0.34 0.08,0.0533 0.246663,0.0934 0.5,0.12 0.119996,-0.10665 0.293329,-0.21998 0.52,-0.34 0.146662,0.0134 0.353329,0.0134 0.62,0 0.05333,-0.0133 0.159995,-0.0733 0.32,-0.18 0.173328,-0.10665 0.299994,-0.15998 0.38,-0.16 m -0.06,2.16 -0.12,0.12 c -0.146672,-0.0133 -0.353339,-0.0133 -0.62,0 -0.106672,0.0667 -0.240005,0.14001 -0.4,0.22 l -0.12,0 c -4e-6,0.14668 -0.04,0.34001 -0.12,0.58 -4e-6,1e-5 -0.07334,1e-5 -0.22,0 -0.05334,0.26668 -0.05334,0.47335 0,0.62 0.09333,0.13335 0.133329,0.19335 0.12,0.18 -0.02667,-0.0266 -0.06667,-0.0133 -0.12,0.04 0.02666,0.13335 0.02666,0.23335 0,0.3 -0.08,0.0533 -0.153337,0.12668 -0.22,0.22 0.01333,0.16001 0.01333,0.40668 0,0.74 0.839995,0.0667 1.386661,0.0667 1.64,0 l 0.06,-0.12 c 0.239994,-0.14665 0.466661,-0.23999 0.68,-0.28 0.199994,-0.0266 0.48666,-0.007 0.86,0.06 0.01333,-0.0933 0.05333,-0.24665 0.12,-0.46 -0.06667,1e-5 0.146659,0.0134 0.64,0.04 0.279992,1e-5 0.466658,-0.0333 0.56,-0.1 0.05333,-0.04 0.09333,-0.13332 0.12,-0.28 0.03999,-0.14665 0.07332,-0.27999 0.1,-0.4 -0.160009,-0.08 -0.406675,-0.21332 -0.74,-0.4 -0.02668,-0.04 -0.06668,-0.0933 -0.12,-0.16 -0.06667,-0.0133 -0.180008,-0.0533 -0.34,-0.12 -0.05334,-0.0933 -0.166674,-0.20665 -0.34,-0.34 -0.21334,-0.0266 -0.520007,-0.0866 -0.92,-0.18 -0.01334,1e-5 -0.07334,-0.06 -0.18,-0.18 -0.08001,-0.08 -0.186673,-0.11332 -0.32,-0.1 m 2.04,4.78 0,0.12 c -0.133341,0.04 -0.380007,0.12001 -0.74,0.24 -0.05334,0.04 -0.126674,0.0933 -0.22,0.16 -0.29334,1e-5 -0.733339,0.02 -1.32,0.06 -0.240005,0.0933 -0.560005,0.20668 -0.96,0.34 -0.04,-0.0133 -0.100004,-0.0133 -0.18,0 -0.01334,0.0667 -0.04667,0.14001 -0.1,0.22 -0.133337,0.0533 -0.306671,0.13334 -0.52,0.24 -4e-6,0.0933 0.0067,0.18668 0.02,0.28 -4e-6,0.08 -0.04667,0.14001 -0.14,0.18 -0.09334,-0.0133 -0.22667,-0.0133 -0.4,0 l -0.06,0.1 c -3e-6,1e-5 -0.05334,1e-5 -0.16,0 -3e-6,0.0533 0.02,0.13334 0.06,0.24 0.106664,0.0533 0.239997,0.12667 0.4,0.22 -0.01334,0.0533 -0.01334,0.11334 0,0.18 0.04,-0.0133 0.09333,-0.0133 0.16,0 0.06666,0.0267 0.15333,0.12001 0.26,0.28 0.106663,0.16001 0.193329,0.25334 0.26,0.28 0.05333,1e-5 0.126662,1e-5 0.22,0 0.253329,0.0667 0.426662,0.0867 0.52,0.06 0.05333,-0.0533 0.126662,-0.11333 0.22,-0.18 0.346661,-0.0667 0.786661,-0.007 1.32,0.18 -6e-6,1e-5 -6e-6,0.0133 0,0.04 -6e-6,0.0133 0.01999,0.02 0.06,0.02 l 0,-0.06 c 0.279993,-0.14666 0.433326,-0.23999 0.46,-0.28 -0.01334,-0.08 -7e-6,-0.19333 0.04,-0.34 l 0.12,0 c 0.05333,-0.0933 0.133326,-0.19333 0.24,-0.3 -7e-6,1e-5 0.146659,1e-5 0.44,0 0.133325,-0.34666 0.366659,-0.62666 0.7,-0.84 -0.05334,-0.0267 -0.04001,-0.0667 0.04,-0.12 -8e-6,-0.0133 -0.03334,-0.0733 -0.1,-0.18 l 0.1,0 c 0.01333,-0.04 0.03333,-0.11332 0.06,-0.22 -0.09334,-0.0667 -0.206675,-0.17999 -0.34,-0.34 -0.02668,-0.11999 -0.06668,-0.24666 -0.12,-0.38 -0.05334,-0.14666 -0.166675,-0.21332 -0.34,-0.2"
           id="path3000"
           inkscape:connector-curvature="0" />
        <path
           d="m 60.665625,216.08073 c 0.106664,-0.0266 0.246664,-0.04 0.42,-0.04 0.77333,2e-5 1.253329,0.0867 1.44,0.26 0.02666,0.12002 0.06,0.26002 0.1,0.42 0.106662,0.21335 0.359995,0.42669 0.76,0.64 0.01333,0.0667 0.01333,0.16002 0,0.28 -5e-6,0.0134 -0.02,0.0267 -0.06,0.04 -0.04001,0.0134 -0.06001,0.04 -0.06,0.08 -5e-6,0.0134 0.03333,0.0934 0.1,0.24 0.06666,0.14668 0.09333,0.28002 0.08,0.4 -0.06667,0.0933 -0.146672,0.22668 -0.24,0.4 -0.05334,0.29335 -0.05334,0.54668 0,0.76 0.08,0.0667 0.159995,0.16002 0.24,0.28 -5e-6,0.0533 -0.02,0.10002 -0.06,0.14 -0.04001,0.0267 -0.06,0.04 -0.06,0.04 -0.02667,0.08 -0.02001,0.15335 0.02,0.22 0.04,0.0667 0.07333,0.12668 0.1,0.18 0.439994,0.04 0.693327,0.04 0.76,0 -6e-6,-0.0666 0.01999,-0.13998 0.06,-0.22 0.119994,-0.11998 0.293327,-0.19998 0.52,-0.24 0.34666,-0.0667 0.713326,-0.0466 1.1,0.06 0.09333,0.0534 0.206659,0.11335 0.34,0.18 0.05333,-0.04 0.153325,-0.08 0.3,-0.12 0.01332,2e-5 0.219992,0.0534 0.62,0.16 0.399991,0.10668 0.61999,0.16668 0.66,0.18 0.02666,0.0667 0.07999,0.14668 0.16,0.24 0.02666,0.0267 0.06666,0.04 0.12,0.04 l 0,0 c 0.07999,2e-5 0.166657,0.0467 0.26,0.14 0.11999,0.13335 0.186656,0.20668 0.2,0.22 0.173323,0.08 0.386656,0.22002 0.64,0.42 0.06666,0.08 0.119989,0.22668 0.16,0.44 0.05332,0.21335 0.106655,0.35335 0.16,0.42 0.05332,0.0533 0.119989,0.13335 0.2,0.24 -1.1e-5,0.0534 -1.1e-5,0.11335 0,0.18 0.05332,-0.0133 0.113322,1e-5 0.18,0.04 0.01332,0.0267 0.01999,0.08 0.02,0.16 -1.2e-5,0.08 0.01332,0.12668 0.04,0.14 0.05332,1e-5 0.113322,1e-5 0.18,0 0.119988,0.0267 0.193321,0.0934 0.22,0.2 0.03999,0.24001 0.05999,0.36668 0.06,0.38 l 0.18,0.06 c -0.01335,-0.0533 -0.03335,0.10001 -0.06,0.46 l -0.06,0 c 0.06665,0.12001 0.106654,0.33335 0.12,0.64 -0.05335,0.0533 -0.113346,0.11334 -0.18,0.18 -0.01335,0.14668 0.01999,0.26668 0.1,0.36 0.07999,0.08 0.126654,0.13334 0.14,0.16 -0.02668,0.12001 -0.04668,0.33334 -0.06,0.64 0.02665,0.72001 0.02665,1.14668 0,1.28 -0.06668,0.08 -0.146679,0.19334 -0.24,0.34 -1.2e-5,0.14668 -0.04001,0.36001 -0.12,0.64 -0.09334,0.0533 -0.206678,0.14667 -0.34,0.28 -0.06668,0.13334 -0.106678,0.42667 -0.12,0.88 -0.02668,0.46667 -0.0067,0.74001 0.06,0.82 0.05332,-0.0267 0.133322,-0.0467 0.24,-0.06 0.02666,-0.23999 0.05332,-0.42666 0.08,-0.56 0.06666,-0.23999 0.153321,-0.38666 0.26,-0.44 -0.02668,-0.0133 -0.04668,-0.0533 -0.06,-0.12 0.06665,0.0267 0.186654,0.0467 0.36,0.06 -0.01335,0.12001 -0.01335,0.18001 0,0.18 0.03999,0.0133 0.113321,0.0333 0.22,0.06 -1.3e-5,0.0667 -1.3e-5,0.20001 0,0.4 -0.02668,0.0133 -0.06668,0.0333 -0.12,0.06 0.02665,0.0667 0.02665,0.20667 0,0.42 l -0.1,0.04 c -1.2e-5,0.0533 -1.2e-5,0.11334 0,0.18 -0.05335,1e-5 -0.113346,0.02 -0.18,0.06 -0.01335,0.0667 -0.05335,0.14667 -0.12,0.24 -0.08001,0.04 -0.200012,0.0733 -0.36,0.1 -0.08001,1e-5 -0.173345,0.08 -0.28,0.24 -0.266678,0.0133 -0.440011,0.0133 -0.52,0 -0.05334,0.0933 -0.106678,0.19334 -0.16,0.3 -0.146677,0.0133 -0.286677,0.0267 -0.42,0.04 -0.173344,-0.04 -0.286677,-0.0533 -0.34,-0.04 -0.173343,0.0267 -0.406676,0.06 -0.7,0.1 l 0,0.12 c -0.08001,0.0667 -0.200009,0.14667 -0.36,0.24 -0.200009,0.0667 -0.613342,0.1 -1.24,0.1 -0.61334,0 -1.026673,-0.0333 -1.24,-0.1 -7e-6,0 -0.02001,-0.06 -0.06,-0.18 -0.120006,0 -0.313339,-0.02 -0.58,-0.06 -0.01334,0 -0.153339,-0.0733 -0.42,-0.22 -0.173339,-0.0933 -0.346672,-0.13333 -0.52,-0.12 -0.186671,0.0533 -0.380005,0.10667 -0.58,0.16 l 0,0.12 c -0.106671,0.30667 -0.393337,0.42667 -0.86,0.36 -0.04,-0.0133 -0.133337,-0.0667 -0.28,-0.16 -0.14667,-0.0933 -0.24667,-0.14 -0.3,-0.14 l -0.06,0 c -0.04,-0.0667 -0.07334,-0.27333 -0.1,-0.62 -0.02667,-0.39999 -0.06,-0.63999 -0.1,-0.72 -0.04,-0.08 -0.09334,-0.23333 -0.16,-0.46 -3e-6,-0.0133 0.0067,-0.08 0.02,-0.2 0.02666,-0.11999 0.04,-0.20666 0.04,-0.26 0.04,-0.0133 0.08,-0.0333 0.12,-0.06 0.01333,-0.11999 -0.01334,-0.27333 -0.08,-0.46 -0.09334,-0.30666 -0.140002,-0.45999 -0.14,-0.46 -0.08,-0.0667 -0.100002,-0.10666 -0.06,-0.12 0.05333,-0.04 0.08,-0.15333 0.08,-0.34 -2e-6,-0.08 0.0067,-0.13999 0.02,-0.18 0.08,-0.08 0.159997,-0.17999 0.24,-0.3 -0.01334,-0.15999 -0.01334,-0.39332 0,-0.7 0.05333,-0.0933 0.11333,-0.22666 0.18,-0.4 -3e-6,0.0133 -0.02,-0.06 -0.06,-0.22 -3e-6,0.0133 0.0067,1e-5 0.02,-0.04 0.02666,-0.04 0.04,-0.0667 0.04,-0.08 0.01333,-0.18666 0.01333,-0.41999 0,-0.7 -3e-6,-0.04 -0.02,-0.13332 -0.06,-0.28 -0.04,-0.15999 -0.06,-0.27999 -0.06,-0.36 0.05333,-0.14665 0.11333,-0.31999 0.18,-0.52 0.02666,-0.22665 -0.01334,-0.46665 -0.12,-0.72 -0.106669,-0.25332 -0.146669,-0.47999 -0.12,-0.68 0.05333,-0.0933 0.11333,-0.20665 0.18,-0.34 0.02666,-0.13332 0.0067,-0.30665 -0.06,-0.52 -0.05334,-0.22665 -0.07334,-0.41999 -0.06,-0.58 -3e-6,-0.11998 0.03333,-0.44665 0.1,-0.98 0.05333,-0.46665 0.08,-0.83998 0.08,-1.12 -3e-6,-0.25332 -0.02,-0.46665 -0.06,-0.64 -0.05334,-0.04 -0.113336,-0.0933 -0.18,-0.16 -3e-6,-0.0933 -0.02,-0.23332 -0.06,-0.42 -0.05334,-0.0266 -0.113336,-0.0667 -0.18,-0.12 l 0,-0.1 c -0.09334,-0.0667 -0.473335,-0.12665 -1.14,-0.18 -0.573334,-0.0533 -0.886667,-0.16665 -0.94,-0.34 -0.01333,-0.0666 -0.02,-0.13331 -0.02,-0.2 0,-0.41331 0.106666,-0.65998 0.32,-0.74 0.05333,0.0134 0.126666,0.0134 0.22,0 l 0.12,-0.12 c 0.119999,-0.0133 0.259999,0.007 0.42,0.06 0.173332,0.0533 0.286665,0.0734 0.34,0.06 0.173331,-0.13331 0.366664,-0.26665 0.58,-0.4 m 5.34,8.52 c -0.133341,0.0934 -0.306674,0.19334 -0.52,0.3 -7e-6,1e-5 -0.29334,1e-5 -0.88,0 -0.01334,0.12001 -0.05334,0.25334 -0.12,0.4 -0.05334,1e-5 -0.126673,0.02 -0.22,0.06 0.06666,0.14668 0.179994,0.36001 0.34,0.64 0.02666,0.0133 0.06666,0.0333 0.12,0.06 -0.01334,0.0533 -0.01334,0.11334 0,0.18 0.10666,0.0133 0.219993,0.0333 0.34,0.06 -0.09334,0.0267 -0.266673,0.06 -0.52,0.1 0.03999,0.08 0.05999,0.12001 0.06,0.12 -0.09334,0.0667 -0.140006,0.12001 -0.14,0.16 -6e-6,-0.0533 0.04666,0.0267 0.14,0.24 0.05333,-0.0267 0.113327,-0.06 0.18,-0.1 0.03999,-0.0133 0.193327,0.04 0.46,0.16 -0.06667,0.04 -0.08001,0.13334 -0.04,0.28 0.02666,0.08 0.05999,0.16001 0.1,0.24 0.05333,-0.0133 0.113326,-0.0267 0.18,-0.04 l 0.1,-0.06 c -0.01334,-0.26666 -0.01334,-0.45999 0,-0.58 l 0,-0.12 c 0.253326,-0.13332 0.379992,-0.24666 0.38,-0.34 -8e-6,-0.0533 -0.03334,-0.08 -0.1,-0.08 -0.106674,1e-5 -0.233341,0.06 -0.38,0.18 -0.01334,-0.0267 -0.01334,-0.08 0,-0.16 -0.08001,1e-5 -0.200007,-0.02 -0.36,-0.06 -0.05334,-0.08 -0.146673,-0.15999 -0.28,-0.24 -7e-6,0.0267 -0.04001,0.0467 -0.12,0.06 l -0.06,-0.12 c 0.05333,1e-5 0.133327,-0.02 0.24,-0.06 -7e-6,-0.0533 0.01333,-0.11332 0.04,-0.18 0.05333,0.0133 0.113327,0.0133 0.18,0 l 0.06,-0.1 c 0.09333,-0.0133 0.266659,-0.0333 0.52,-0.06 0.03999,-0.21332 0.09999,-0.34666 0.18,-0.4 0.07999,-0.0533 0.273325,-0.11332 0.58,-0.18 -0.01334,-0.0267 -0.05334,-0.10666 -0.12,-0.24 -0.226675,-0.08 -0.340008,-0.11999 -0.34,-0.12"
           id="path3002"
           inkscape:connector-curvature="0" />
        <path
           d="m 77.4125,219.72073 0.34,0.1 c 0.14666,0.0134 0.313327,2e-5 0.5,-0.04 0.18666,-0.04 0.366659,-0.0466 0.54,-0.02 0.173326,0.10668 0.426659,0.22668 0.76,0.36 0.253325,0.0267 0.619991,0.12002 1.1,0.28 0.02666,0.0533 0.05999,0.11335 0.1,0.18 0.06666,2e-5 0.146657,0.02 0.24,0.06 -1e-5,0.0534 0.01999,0.11335 0.06,0.18 0.05332,2e-5 0.146657,0.0134 0.28,0.04 0.02666,0.0534 0.06666,0.11335 0.12,0.18 0.05332,2e-5 0.133323,2e-5 0.24,0 l 0.4,0.3 c -1.1e-5,0.04 -1.1e-5,0.0933 0,0.16 0.159989,0.16001 0.353322,0.41335 0.58,0.76 -1.1e-5,0.14668 0.03999,0.36001 0.12,0.64 0.133322,0.0933 0.326655,0.22668 0.58,0.4 -0.106679,0.33335 -0.106679,0.74001 0,1.22 -0.293345,0.0534 -0.446678,0.12668 -0.46,0.22 -0.06668,0.28001 -0.106678,0.43334 -0.12,0.46 -0.06668,0.10668 -0.346678,0.27334 -0.84,0.5 -0.48001,0.22668 -0.80001,0.33334 -0.96,0.32 -0.06668,-0.0133 -0.266676,-0.10666 -0.6,-0.28 -0.333342,-0.18666 -0.520009,-0.30666 -0.56,-0.36 -0.01334,-0.0133 -0.05334,-0.12666 -0.12,-0.34 -0.05334,-0.0533 -0.146675,-0.0867 -0.28,-0.1 -0.173341,1e-5 -0.286675,-0.0133 -0.34,-0.04 -0.05334,-0.04 -0.133341,-0.0933 -0.24,-0.16 0.02666,-0.13332 0.08666,-0.32665 0.18,-0.58 0.01333,-0.04 0.08666,-0.0933 0.22,-0.16 0.146659,-0.25332 0.186659,-0.52665 0.12,-0.82 -0.08001,-0.08 -0.173341,-0.19332 -0.28,-0.34 -0.01334,-0.0533 -0.03334,-0.11332 -0.06,-0.18 -0.186674,-0.0133 -0.460007,-0.0533 -0.82,-0.12 -0.04001,1e-5 -0.180007,-0.0667 -0.42,-0.2 -0.200006,-0.0933 -0.366673,-0.11999 -0.5,-0.08 l 0,0.18 c -0.133339,0.0134 -0.346672,0.0267 -0.64,0.04 -0.02667,0.13335 -0.106672,0.29335 -0.24,0.48 -0.06667,10e-6 -0.180005,0.0333 -0.34,0.1 -5e-6,0.0533 -5e-6,0.11335 0,0.18 l -0.34,0.4 -0.12,0 c 0.05333,0.04 0.07333,0.10001 0.06,0.18 -0.106671,0.08 -0.160004,0.14668 -0.16,0.2 -4e-6,0.0934 -0.02667,0.18001 -0.08,0.26 -0.04,1e-5 -0.09334,0.02 -0.16,0.06 -0.01334,0.0933 -0.05334,0.22668 -0.12,0.4 -0.01334,0.0133 -0.07334,0.0333 -0.18,0.06 0.106663,0.0133 0.159996,0.04 0.16,0.08 -4e-6,0.0667 -0.07334,0.12001 -0.22,0.16 0.01333,0.08 0.01333,0.21334 0,0.4 l -0.12,0.06 c -3e-6,0.17334 0.02,0.50001 0.06,0.98 -0.05334,0.0133 -0.14667,0.0533 -0.28,0.12 0.06666,0.0267 0.08666,0.08 0.06,0.16 -0.01334,0.0933 -0.05334,0.15334 -0.12,0.18 0.01333,0.0533 0.03333,0.15334 0.06,0.3 0.119997,10e-6 0.179997,10e-6 0.18,0 l 0,0.1 0.04,0 c -3e-6,0.25334 0.04,0.54668 0.12,0.88 0.06666,0.0533 0.186663,0.0867 0.36,0.1 0.173329,1e-5 0.273329,0.007 0.3,0.02 0.04,0.0133 0.166662,0.24001 0.38,0.68 0.07999,-0.15999 0.139995,-0.25333 0.18,-0.28 -5e-6,10e-6 0.133328,-0.02 0.4,-0.06 0.133328,0.28001 0.326661,0.58667 0.58,0.92 0.106661,0.04 0.319994,0.06 0.64,0.06 0.319993,1e-5 0.533326,-0.02 0.64,-0.06 0.09333,-0.10666 0.246659,-0.21999 0.46,-0.34 0.159992,0.04 0.393325,0.08 0.7,0.12 0.173325,-0.0133 0.299991,-0.0867 0.38,-0.22 0.09332,-0.14666 0.173325,-0.28666 0.24,-0.42 0.03999,-0.0133 0.07999,-0.0333 0.12,-0.06 -9e-6,-0.0533 -9e-6,-0.11333 0,-0.18 0.01332,1e-5 0.07332,1e-5 0.18,0 0.05332,-0.08 0.113324,-0.17333 0.18,-0.28 -0.02668,-0.10666 -0.02668,-0.29999 0,-0.58 0.02666,1e-5 0.05999,-0.04 0.1,-0.12 0.133324,0.0133 0.326657,-0.007 0.58,-0.06 0.03999,-0.0533 0.09999,-0.10666 0.18,-0.16 0.05332,1e-5 0.133323,1e-5 0.24,0 0.03999,-0.0667 0.09332,-0.12666 0.16,-0.18 0.213323,-0.04 0.439989,1e-5 0.68,0.12 0.239988,0.12001 0.399988,0.25334 0.48,0.4 -1.2e-5,0.0533 0.01999,0.12668 0.06,0.22 0.146655,0.10668 0.299988,0.28001 0.46,0.52 0.02665,0.12001 -1.2e-5,0.28001 -0.08,0.48 -0.08001,0.20001 -0.146679,0.31334 -0.2,0.34 -0.05334,1e-5 -0.113345,1e-5 -0.18,0 -1.2e-5,0.0933 -0.02001,0.22667 -0.06,0.4 -0.05335,0.0533 -0.113345,0.11334 -0.18,0.18 -1.2e-5,0.12001 -0.01335,0.29334 -0.04,0.52 -0.426678,0.13334 -0.760011,0.30667 -1,0.52 l 0,0.12 c -0.02668,0.08 -0.16001,0.17334 -0.4,0.28 -0.09334,0.0533 -0.253343,0.0733 -0.48,0.06 -0.226676,-0.0133 -0.353343,-0.0133 -0.38,0 -0.01334,0.0667 -0.03334,0.14667 -0.06,0.24 -0.133342,0.14667 -0.286676,0.26 -0.46,0.34 -0.133342,0.0133 -0.346675,0.0533 -0.64,0.12 -0.09334,0.0667 -0.206675,0.14 -0.34,0.22 -0.186674,0.04 -0.426674,0.04 -0.72,0 -0.320007,-0.04 -0.546673,-0.06 -0.68,-0.06 -0.426673,0.0267 -0.600006,0.0467 -0.52,0.06 l -0.22,-0.1 c 0.01333,0 -0.233339,0.007 -0.74,0.02 -0.280005,0.0133 -0.500004,-0.0333 -0.66,-0.14 -0.04,-0.08 -0.113337,-0.18 -0.22,-0.3 -0.05334,0.0133 -0.113337,0.0133 -0.18,0 -0.05334,-0.0533 -0.113337,-0.10666 -0.18,-0.16 -0.09334,-0.0133 -0.22667,-0.0533 -0.4,-0.12 -0.04,-0.0933 -0.120003,-0.20666 -0.24,-0.34 -0.04,1e-5 -0.09334,1e-5 -0.16,0 l -0.42,-0.3 c -0.01334,-0.08 -0.04667,-0.19333 -0.1,-0.34 -0.106669,-0.0533 -0.233335,-0.17333 -0.38,-0.36 0.01333,-0.13333 -2e-6,-0.33999 -0.04,-0.62 -0.09333,-0.11999 -0.206668,-0.27999 -0.34,-0.48 -0.02667,-0.13333 -0.06667,-0.28666 -0.12,-0.46 -0.04,1e-5 -0.09333,-0.02 -0.16,-0.06 -0.01333,-0.13333 -0.05334,-0.33999 -0.12,-0.62 -0.09333,-0.0933 -0.193334,-0.21332 -0.3,-0.36 -10e-7,-0.17332 -0.03333,-0.43999 -0.1,-0.8 -0.05333,-0.0667 -0.113334,-0.14666 -0.18,-0.24 -0.06667,-0.33332 -0.04667,-0.63999 0.06,-0.92 l 0.12,-0.06 c -0.01333,-0.13332 -0.01333,-0.28666 0,-0.46 0.06667,-0.17332 0.139999,-0.40665 0.22,-0.7 -0.01333,-0.08 -0.01333,-0.19332 0,-0.34 0.133332,-0.17332 0.286665,-0.42665 0.46,-0.76 -0.01333,-0.0533 -0.01333,-0.12665 0,-0.22 0.119998,-0.0933 0.253332,-0.21332 0.4,-0.36 0.04,-0.11999 0.119998,-0.29332 0.24,-0.52 0.08,-0.0266 0.179998,-0.08 0.3,-0.16 -2e-6,-0.0933 0.03333,-0.23332 0.1,-0.42 l 0.12,0 0,-0.06 c 0.06666,-0.0266 0.219997,-0.13998 0.46,-0.34 0.02666,-0.0667 0.06666,-0.14665 0.12,-0.24 0.13333,2e-5 0.326663,-0.0333 0.58,-0.1 0.09333,-0.10665 0.246663,-0.24665 0.46,-0.42 l 0,-0.1 c 0.08,-0.0533 0.193329,-0.08 0.34,-0.08 0.159995,-0.0133 0.273328,-0.0333 0.34,-0.06 0.07999,-0.04 0.159995,-0.0933 0.24,-0.16 0.119995,2e-5 0.293328,-0.02 0.52,-0.06 0.106661,-0.0533 0.246661,-0.10665 0.42,-0.16"
           id="path3004"
           inkscape:connector-curvature="0" />
      </g>
    </g>
  </g>
</svg>
